<?xml version="1.0" encoding="UTF-8"?>
<svg id="Livello_3" data-name="Livello 3" xmlns="http://www.w3.org/2000/svg" viewBox="0 0 858.32 455.06">
  <defs>
    <style>
      .cls-1 {
        fill: #fff;
      }
    </style>
  </defs>
  <g>
    <path class="cls-1" d="m393.53,121.88c-1.96-.94-3.59-2.27-4.88-3.99-1.29-1.72-2.25-3.69-2.86-5.91-.45-1.63-.67-3.37-.67-5.24,0-3.27.72-6.36,2.17-9.22,1.45-2.86,3.59-5.11,6.43-6.72-2.7,0-5.4.01-8.1.02,0-.18,0-.36,0-.54,8.57-.01,17.14-.02,25.71-.03v7.52c-.17,0-.33,0-.5,0,.06-1.21-.24-2.34-.88-3.41-.64-1.06-1.51-1.93-2.61-2.59-1.1-.66-2.28-1-3.53-.99-3.03,0-6.07.01-9.1.02-1.11.93-1.94,2.17-2.48,3.72-.54,1.56-.81,3.29-.81,5.2,0,3.1.64,6.21,1.92,9.31,1.14,2.74,2.62,4.95,4.45,6.62,1.82,1.68,3.78,2.45,5.87,2.35.97-.05,1.98-.32,3.01-.8,1.73-.86,3.1-2.33,4.11-4.4,1.02-2.07,1.45-4.55,1.31-7.47.17-.03.33-.07.5-.1.06.51.08,1.27.08,2.28,0,3.24-.58,5.99-1.73,8.28-1.16,2.29-2.68,4.04-4.57,5.26-1.89,1.21-3.97,1.89-6.22,2.02-2.45.14-4.65-.26-6.62-1.19Z"/>
    <path class="cls-1" d="m434.38,115.04c.94-2.57,1.42-5.17,1.42-7.81,0-2.28-.36-4.15-1.08-5.6-.72-1.46-1.77-2.17-3.13-2.15-1.53.03-2.91.88-4.13,2.55-1.23,1.68-2.13,3.74-2.71,6.17v9.51c0,1.12.35,1.85,1.04,2.19.7.34,1.68.49,2.96.44v.5c-5.19.3-10.38.59-15.57.88,0-.17,0-.34,0-.51,1.28-.1,2.27-.36,2.98-.78.71-.42,1.06-1.2,1.06-2.33,0-8.13,0-16.28,0-24.44,0-1.94-1.35-2.9-4.05-2.9,0-.17,0-.34,0-.52,3.85,0,7.71,0,11.56-.01v15.7c.86-3.17,2.06-5.79,3.59-7.85,1.53-2.06,3.51-3.09,5.93-3.12,1.95-.02,3.63.41,5.05,1.29,1.42.88,2.5,2.06,3.23,3.54.74,1.48,1.11,3.12,1.11,4.93,0,1.9-.42,3.81-1.27,5.75-.85,1.94-2.15,3.75-3.9,5.46-1.75,1.7-3.92,3.11-6.51,4.23,3.76-.21,7.51-.42,11.27-.63v.49c-4.24.24-8.49.48-12.73.72,1.64-1.23,2.94-3.14,3.88-5.7Z"/>
    <path class="cls-1" d="m452.41,117.76c-2.56-1.46-4.52-3.62-5.89-6.48-.92-1.99-1.38-4.07-1.38-6.23,0-2.68.66-5.21,1.98-7.58,1.32-2.37,3.22-4.28,5.68-5.72,2.46-1.44,5.31-2.15,8.54-2.15,2.06,0,4.01.33,5.87.96,1.85.64,3.49,1.54,4.91,2.7-1.41,2.15-2.81,4.33-4.22,6.53-1.45-2.73-3.12-4.8-5.03-6.2-1.91-1.4-3.75-2.11-5.53-2.1-1.03,0-1.95.23-2.75.68-.97.56-1.74,1.4-2.3,2.52-.56,1.12-.84,2.47-.83,4.04,0,2.37.68,5.07,2.04,8.06,2.98-.1,5.96-.2,8.93-.3,1.98-.07,3.02-1.37,3.13-3.89.17,0,.33,0,.5-.01v9.53c-.17,0-.33.01-.5.02-.03-1.31-.29-2.5-.77-3.59-.49-1.09-1.27-1.62-2.36-1.58-2.89.1-5.79.2-8.68.3.13.26.25.52.38.79,1.22,2.35,2.75,4.1,4.59,5.26,1.84,1.16,3.7,1.69,5.59,1.59,1.03-.05,1.96-.26,2.8-.64,1.75-.74,3.14-2.03,4.17-3.88,1.03-1.85,1.47-4.13,1.34-6.84.17-.03.33-.06.5-.09.06.46.08,1.14.08,2.04,0,2.93-.58,5.43-1.75,7.51-1.17,2.09-2.71,3.69-4.61,4.82-1.91,1.12-4,1.75-6.28,1.88-2.87.16-5.58-.47-8.14-1.93Z"/>
  </g>
  <path class="cls-1" d="m109.61,180.14c0-4.88.82-8.94,2.46-12.2,1.64-3.27,3.9-5.57,6.77-6.92,2.38-1.08,5.05-1.42,8.01-1,5.25.75,10.69,3.86,16.32,9.4,5.62,5.53,10.57,13.29,14.84,23.15,4.15-6.86,8.29-13.92,12.44-21.2-4.19-4.52-8.99-8.16-14.41-10.95-5.42-2.79-11.21-4.5-17.36-5.22-9.53-1.11-17.92.1-25.19,3.46-7.27,3.37-12.83,8.14-16.69,14.5-3.86,6.37-5.79,13.48-5.79,21.61,0,4.31.59,8.69,1.76,13.14,8.17,1.23,16.37,2.26,24.58,3.11-5.16-11.91-7.74-22.22-7.74-30.89Z"/>
  <path class="cls-1" d="m177.4,211c-.49.04-.99.08-1.48.12.11,2.54.08,4.92-.07,7.18-.39,5.85-1.65,10.77-3.81,14.78-3,5.56-7.08,9-12.25,10.35-2.79.69-5.54.82-8.25.41-5.58-.85-11.06-3.72-16.44-8.65-5.38-4.92-9.91-11.55-13.61-19.84-.05-.11-.09-.22-.14-.33-8.21-.86-16.41-1.88-24.58-3.11.61,2.34,1.37,4.69,2.3,7.07,2.63,6.63,6.14,12.65,10.53,17.95,4.39,5.31,9.26,9.6,14.59,12.83,5.34,3.24,10.75,5.32,16.26,6.28,6.73,1.17,12.91.55,18.53-1.79,5.62-2.35,10.14-6.56,13.55-12.65,3.35-6,5.05-13.73,5.1-23.27,0-.16.01-.31.01-.47,0-3-.08-5.29-.25-6.87Z"/>
  <path class="cls-1" d="m191.07,250.63c0,3.26-1.05,5.34-3.14,6.26-2.09.92-5.03,1.26-8.81.97,0,.48,0,.96,0,1.44,15.31,1.47,30.62,2.28,45.94,2.56v-1.44c-3.78-.15-6.69-.81-8.74-1.96-2.05-1.15-3.08-3.34-3.08-6.6v-33.74c-7.4.2-14.79.31-22.17.32v32.19Z"/>
  <path class="cls-1" d="m243.6,155.3c-9.61.09-17.51,4.46-23.71,12.93-6.2,8.45-9.3,22.45-9.3,41.08v4.78c.49.02.99.03,1.48.05v-4.78c0-9.27,2.26-16.38,6.77-21.19,4.51-4.81,10.47-7.23,17.86-7.26,6.32-.03,13.05,1.6,20.2,4.82v-28.26c-4.85-1.49-9.28-2.22-13.3-2.18Z"/>
  <path class="cls-1" d="m175.12,160.46c0,.55,0,1.11,0,1.66,7.96.53,11.95,3.89,11.95,10.13v42.19c7.38,0,14.77-.12,22.17-.32v-52.09c-11.37-.29-22.74-.81-34.11-1.58Z"/>
  <path class="cls-1" d="m283.99,189.04c2.05-7.53,5.09-13.89,9.11-18.96,4.02-5.07,8.82-7.83,14.41-8.27,2.87-.27,5.48.36,7.82,1.88,2.34,1.52,4.17,3.44,5.48,5.77,0,12.4,0,24.53,0,36.38,1.78-.19,3.56-.38,5.34-.58,5.61-.65,11.22-1.31,16.83-1.99v-35.24c0-3.36,1.07-5.82,3.2-7.33,2.13-1.51,5.01-2.42,8.62-2.73,0-.53,0-1.06,0-1.59-15.76,1.34-31.53,2.54-47.29,3.5-10.59.64-19.73,4.37-27.4,11.21-7.68,6.83-13.47,15.22-17.36,25.02-2.08,5.21-3.58,10.39-4.55,15.52,7.58-.55,15.16-1.16,22.75-1.84.16-6.94,1.17-13.87,3.05-20.76Z"/>
  <path class="cls-1" d="m330.16,209.26c-1.78.2-3.56.39-5.34.58v.26c-1.97,11.17-4.72,19.92-8.25,26.43-3.53,6.5-8.33,9.96-14.41,10.45-5.42.42-9.65-2.31-12.69-8.3-3.04-5.99-4.56-13.59-4.56-22.92,0-.66.02-1.31.03-1.97-7.59.67-15.17,1.29-22.75,1.84-.85,4.51-1.3,8.99-1.3,13.44,0,6.54.96,12.36,2.89,17.51,1.93,5.15,4.84,9.12,8.74,11.95,3.9,2.83,8.6,4.07,14.1,3.73,9.77-.61,17.86-4.69,24.26-12.28,6.4-7.6,11.04-17.26,13.92-29.14,0,12.45,0,24.58,0,36.4,11.33-1.11,22.66-2.37,33.99-3.74,0-.49,0-.97,0-1.46-3.78.38-6.69.13-8.74-.73-2.05-.86-3.08-2.91-3.08-6.17v-37.88c-5.61.67-11.22,1.34-16.83,1.99Z"/>
  <path class="cls-1" d="m374.88,182.22c0-4.94.82-9.32,2.46-13.1,1.64-3.78,3.9-6.71,6.77-8.8,2.38-1.7,5.05-2.69,8.01-2.98,5.25-.53,10.69,1.25,16.32,5.19,5.62,3.95,10.57,10.06,14.84,18.33,4.15-7.44,8.29-14.82,12.44-22.11-4.19-3.29-8.99-5.7-14.41-7.22-5.42-1.52-11.21-2.02-17.36-1.43-9.53.9-17.92,3.96-25.19,9.28-7.27,5.32-12.83,12-16.69,19.96-3.52,7.25-5.41,14.72-5.72,22.32,7.13-.88,14.26-1.76,21.39-2.66-1.9-5.84-2.86-11.44-2.86-16.77Z"/>
  <path class="cls-1" d="m442.73,195.41s0,0,0,0c-.01-.16-.03-.31-.05-.45-.49.15-.98.29-1.48.44,0,.05,0,.09,0,.14,0,0,0,0,0,0,.38,8.44-.91,15.73-3.88,21.89-3,6.2-7.08,10.71-12.25,13.49-2.79,1.46-5.54,2.38-8.25,2.77-5.58.78-11.07-.39-16.44-3.56-5.38-3.16-9.91-8.21-13.61-15.22-2.1-4.07-3.77-8.04-5.03-11.92-7.13.9-14.26,1.78-21.39,2.66-.03.74-.06,1.49-.06,2.23,0,6.77,1.35,13.11,4.06,19,2.63,5.65,6.14,10.28,10.53,13.93,4.39,3.65,9.26,6.16,14.59,7.56,5.34,1.4,10.75,1.73,16.26.97,6.73-.92,12.91-3.36,18.53-7.3,5.62-3.95,10.14-9.39,13.55-16.32,3.41-6.92,5.11-15.05,5.11-24.37,0-2.55-.07-4.52-.2-5.95Z"/>
  <path class="cls-1" d="m486.96,184c-2.22.46-4.45.86-6.67,1.53l6.67-1.53Z"/>
  <path class="cls-1" d="m501.36,142.61v7.17c0,8.84-1.97,16.6-5.91,23.25-3.94,6.65-9.85,10.52-17.73,11.49-1.07.13-2.13.26-3.2.4,0-13.51,0-26.81,0-39.92-11.37,1.05-22.74,2.16-34.12,3.27v1.46c7.96-.79,11.95,1.53,11.95,6.97v33.01c7.39-.88,14.78-1.74,22.17-2.57v-.78c1.4-.18,2.79-.35,4.19-.52.16-.02.33-.04.49-.06l1.09-.25c2.22-.67,4.45-1.07,6.67-1.53l2.75-.63c.57-.15,1.15-.31,1.72-.49,8.93-3.14,16.49-7.71,22.68-13.64,6.28-6.02,9.42-13.14,9.42-21.36v-7.02c-7.39.55-14.78,1.14-22.17,1.76Z"/>
  <path class="cls-1" d="m535.04,212.21c-.58,6.84-2.46,10.95-5.67,12.19-1.48.57-3.06.16-4.74-1.23-1.68-1.39-3.06-3.51-4.13-6.34-2.75-6.99-5.5-13.88-8.25-20.68-1.52-3.76-4.09-6.34-7.71-7.79,0,0,0,0,0,0-2.58-1.03-5.69-1.48-9.34-1.33l-12.02,2.76c.66.07,1.26.29,1.8.64,0,0,0,0,0,0,.6.39,1.13.96,1.58,1.7.86,1.42,2.2,4.41,4,9.03,3,7.53,5.99,15.13,8.99,22.83,1.8,4.64,4.29,7.68,7.45,9.1,3.16,1.42,6.83,1.89,11.02,1.42,4.43-.49,8.44-2.6,12.01-6.31,3.57-3.7,5.64-9.11,6.22-16.11-.41.04-.82.08-1.23.12Z"/>
  <path class="cls-1" d="m456.34,230.45c0,3.29-1.05,5.64-3.14,7.04-2.09,1.4-5.03,2.41-8.81,3.02v1.48c15.31-2.13,30.62-4.23,45.94-6.18v-1.49c-3.78.4-6.69.18-8.74-.67-2.05-.85-3.08-2.92-3.08-6.22,0-12.25,0-24.35,0-36.29-7.39.83-14.78,1.69-22.17,2.57v36.74Z"/>
  <path class="cls-1" d="m565.86,146.77c0-2.76,1.06-4.72,3.2-5.9,2.13-1.17,5.01-1.83,8.62-1.97,0-.43,0-.85,0-1.28-15.31.58-30.62,1.44-45.94,2.49v1.32c7.96-.55,11.95,1.67,11.95,6.67,0,10.43,0,21.17,0,32.22,7.39-.56,14.78-1.05,22.17-1.48v-32.07Z"/>
  <path class="cls-1" d="m547.7,184.33c0,11.34,0,23,0,34.99,0,3.31-1.05,5.63-3.14,6.95-2.09,1.32-5.03,2.2-8.81,2.65v1.51c15.31-1.5,30.62-2.72,45.94-3.54,0-.5,0-1.01,0-1.51-3.78.12-6.69-.31-8.74-1.31-2.05-1-3.08-3.16-3.08-6.48v-34.74c-7.39.43-14.77.93-22.17,1.48Z"/>
  <path class="cls-1" d="m595.63,216.33c0,3.31-1.05,5.59-3.14,6.81-2.09,1.22-5.03,1.97-8.81,2.25v1.51c15.31-.82,30.62-1.24,45.94-1.14v-1.52c-3.78-.11-6.69-.71-8.74-1.83-2.05-1.12-3.08-3.35-3.08-6.66v-34.45c.02-.07.04-.14.06-.22-7.4.13-14.81.33-22.23.62,0,11.15,0,22.69,0,34.62Z"/>
  <path class="cls-1" d="m676.36,168c0-5.94-1.15-11.35-3.45-16.22-2.3-4.87-5.67-8.74-10.1-11.63-4.43-2.89-9.65-4.4-15.64-4.57-15.44-.29-26.56,10.28-33.37,34.23v-32.98c-11.37.08-22.74.36-34.11.79v1.28c7.96-.29,11.95,2,11.95,6.88,0,10.25,0,20.89,0,31.9,7.41-.29,14.82-.49,22.23-.62,2.05-8.1,5.11-14.74,9.18-20.03,4.1-5.33,8.87-7.89,14.29-7.79,4.84.1,8.56,2.51,11.15,7.33,2.59,4.82,3.88,10.98,3.88,18.6,0,.67-.01,1.35-.03,2.02,7.64.19,15.27.5,22.89.91.76-3.38,1.15-6.75,1.15-10.11Z"/>
  <path class="cls-1" d="m663.06,210.02c5.87-5.78,10.22-11.91,13.05-18.47,1.36-3.16,2.39-6.3,3.1-9.43-7.63-.41-15.26-.72-22.89-.91-.15,5.14-.88,10.4-2.18,15.81-1.48,6.12-3.61,11.76-6.4,16.9-2.79,5.14-6.08,9.14-9.85,11.93,13.75.26,27.5.95,41.26,2.17v-1.51c-12.6-1.12-25.21-1.8-37.81-2.1,8.62-3.83,15.87-8.61,21.74-14.38Z"/>
  <path class="cls-1" d="m697.91,164.21c0-4.43.82-8.1,2.46-11.08,1.64-2.97,3.9-5.07,6.77-6.32,2.38-1,5.05-1.33,8-.96,5.25.65,10.69,3.44,16.32,8.58,5.62,5.14,10.57,12.44,14.84,21.96,4.15-5.86,8.29-11.72,12.44-17.69-4.19-4.62-8.99-8.37-14.41-11.25-5.42-2.88-11.21-4.7-17.37-5.52-9.53-1.27-17.92-.18-25.19,3.02-7.27,3.22-12.83,7.91-16.69,14.12-3.59,5.79-5.49,12.2-5.74,19.28,7.11.43,14.21.95,21.31,1.59-1.84-5.8-2.77-11.02-2.77-15.72Z"/>
  <path class="cls-1" d="m721.62,186.73v1.43c9.52,1.59,17.24,4.18,23.15,7.57,5.91,3.39,10.47,7.56,13.67,12.38-.25,3.45-.99,6.39-2.22,8.82-1.23,2.43-2.88,4.29-4.93,5.59-3.28,2.15-7.39,2.67-12.32,1.61-5.26-1.13-10.51-4.08-15.76-8.82-5.26-4.74-9.73-10.93-13.42-18.51-2.15-4.59-3.85-8.87-5.11-12.87-7.1-.63-14.2-1.16-21.31-1.59-.02.53-.05,1.06-.05,1.59,0,6.24,1.36,12.51,4.06,18.83,2.63,6,6.1,11.4,10.41,16.19,4.31,4.79,9.09,8.7,14.35,11.72,5.25,3.02,10.59,5.03,16.01,6.05,5.58,1.05,10.71.69,15.39-1.08,4.68-1.77,8.48-4.79,11.39-9.15,2.91-4.35,4.58-9.69,4.99-16.04,2.46,4.32,4.1,9.14,4.93,14.42.82,5.28,1.23,11.49,1.23,18.63.41.11.82.23,1.23.34v-47.29c-15.23-4.07-30.46-7.3-45.69-9.82Z"/>
  <g>
    <path class="cls-1" d="m220.6,361.39c2.09-.83,3.14-2.46,3.14-4.95v-58.32c0-5-3.98-7.59-11.95-7.83v-1.35c11.37.37,22.74.45,34.11.29,0,9.78,0,19.23,0,28.35,1.23-5.33,3.34-10.14,6.34-14.41,3-4.26,6.59-7.83,10.78-10.65,2.71-1.8,5.52-3.22,8.44-4.25,2.91-1.03,5.77-1.62,8.56-1.77,3.04-.16,5.85.19,8.44,1.06,2.59.87,4.78,2.26,6.59,4.17,2.46,2.62,3.69,5.49,3.69,8.6,0,3.18-1.25,6.34-3.76,9.44-2.51,3.11-5.89,5.92-10.16,8.43-3.37,1.98-7.06,3.65-11.08,5.03-4.02,1.38-7.96,2.34-11.82,2.9,8.7.97,14.33,3.61,16.87,7.95,4.76,8.29,9.52,16.37,14.29,24.32.9,1.53,2.22,2.61,3.94,3.24,1.72.63,3.98.94,6.77.93,0,.39,0,.77,0,1.16-10.1.03-20.2.05-30.3.06-5.79-9.51-11.58-19.31-17.37-29.53-1.48-2.59-2.69-4.43-3.63-5.51-.94-1.07-2.4-1.77-4.37-2.09-.74,0-1.48.02-2.22.02,0,13.09,0,25.47,0,37.13-11.37,0-22.74,0-34.11-.01v-1.1c3.78-.05,6.71-.49,8.81-1.32Zm34.67-36.05c4.02-.07,7.84-.82,11.45-2.26,3.61-1.45,6.49-3.33,8.62-5.66,2.13-2.33,3.2-4.76,3.2-7.27,0-2.3-.94-4.46-2.83-6.5-2.3-2.45-5.13-3.63-8.5-3.5-3.69.13-7.19,1.59-10.47,4.35-2.63,2.16-4.91,4.99-6.84,8.45-1.93,3.46-3.26,7.41-4,11.81,0,.24,0,.48,0,.72,3.12-.03,6.24-.07,9.36-.12Z"/>
    <path class="cls-1" d="m331.44,362.74c-5.38-1.73-10.26-4.26-14.66-7.63-4.39-3.37-7.9-7.44-10.53-12.31-2.63-4.87-3.94-10.09-3.94-15.77,0-6.93,1.95-13.75,5.85-20.5,3.9-6.75,9.48-12.54,16.75-17.29,7.27-4.76,15.7-7.7,25.31-8.72,4.27-.45,8.91-.04,13.92,1.24,5.01,1.29,9.34,3.37,12.99,6.28,3.65,2.9,5.68,6.35,6.1,10.31-20.44,2.11-40.89,4.05-61.33,5.6-.41,2.26-.62,4.38-.62,6.37,0,6.98,1.89,13.95,5.67,21,3.53,6.43,8.11,11.61,13.73,15.69,5.62,4.07,11.56,6.09,17.8,5.94,2.96-.07,5.83-.64,8.62-1.75,5.25-2.05,9.42-5.77,12.5-11.25,3.08-5.48,4.37-12.34,3.88-20.49.49-.12.99-.23,1.48-.35.16,1.46.25,3.58.25,6.36,0,8.87-1.72,16.38-5.17,22.43-3.45,6.06-8.01,10.46-13.67,13.29-5.67,2.83-11.87,4.17-18.6,4.17-5.5,0-10.94-.9-16.32-2.62Zm29.99-63.61c-.9-5.15-3.12-9-6.65-11.51-3.53-2.51-7.55-3.52-12.07-3.07-2.22.22-4.39.79-6.53,1.68-7.31,3.24-11.99,8.73-14.04,16.34,13.1-1.01,26.19-2.18,39.29-3.45Z"/>
    <path class="cls-1" d="m418.75,362.2c-5.38-2.05-10.26-5.06-14.66-8.99-4.39-3.92-7.9-8.61-10.53-14.13-2.63-5.52-3.94-11.37-3.94-17.67,0-7.7,1.95-15.21,5.85-22.64,3.9-7.43,9.48-13.79,16.75-19.06,7.27-5.26,15.7-8.57,25.31-9.79,4.27-.54,8.91-.16,13.92,1.17,5.01,1.34,9.34,3.56,12.99,6.68,3.65,3.12,5.68,6.86,6.1,11.17-20.44,2.13-40.89,4.41-61.33,6.63-.41,2.46-.62,4.77-.62,6.94,0,7.63,1.89,15.31,5.67,23.23,3.53,7.22,8.11,13.17,13.73,17.89,5.62,4.72,11.56,7.11,17.8,6.94,2.96-.08,5.83-.75,8.62-2.04,5.25-2.39,9.42-6.73,12.5-13.03,3.08-6.29,4.37-14.11,3.88-23.24.49-.13.99-.25,1.48-.38.16,1.63.25,4.01.25,7.15,0,10.01-1.72,18.65-5.17,25.69-3.45,7.04-8,12.26-13.67,15.62-5.67,3.37-11.87,4.98-18.6,4.98-5.5,0-10.94-1.08-16.32-3.13Zm29.99-72.43c-.91-5.59-3.12-9.7-6.65-12.34-3.53-2.64-7.56-3.66-12.07-3.09-2.22.28-4.39.92-6.53,1.92-7.31,3.61-11.99,9.57-14.04,17.85,13.1-1.43,26.19-2.9,39.29-4.33Z"/>
    <path class="cls-1" d="m513.03,365.46c-8.62,0-16.26-2.79-22.91-8.05-6.65-5.27-11.04-12.79-13.18-22.58-.49-2.36-.74-4.73-.74-7.1,0-6.07,1.6-11.98,4.8-17.83,3.2-5.85,7.65-10.92,13.36-15.2,5.7-4.28,12.21-7.27,19.52-8.88-6.08-.71-13.05-.67-20.94.11-5.34.52-11.17,1.33-17.49,2.41v-22.73c19.21-2.31,34.96-2.24,47.23.22,12.27,2.46,21.41,7.4,27.4,14.82,5.99,7.42,8.99,17.59,8.99,30.64,0,10.59-2.24,20.16-6.71,28.44-4.48,8.28-10.33,14.76-17.55,19.3-6.82,4.35-14.08,6.46-21.8,6.46Zm.31-17.96c4.72,5.47,9.79,8.29,15.21,8.22,2.63-.03,5.09-.74,7.39-2.13,7.06-4.16,10.59-11.86,10.59-22.69,0-6.9-1.44-14.72-4.31-23.3-3.53-10.77-10.96-17.59-22.29-20.57-6.73,1.1-11.72,3.89-14.96,8.33-3.24,4.45-4.86,9.89-4.86,16.42,0,4.75.82,9.86,2.46,15.42,2.46,8.06,6.05,14.84,10.78,20.31Z"/>
    <path class="cls-1" d="m594.31,364.68c-6.73,0-13.05-.98-18.97-2.89-5.91-1.91-10.34-4.11-13.3-6.58,2.05-10.3,4.11-20.48,6.16-30.51,1.27,2.38,2.54,4.78,3.82,7.2,3.61,6.77,6.63,12.12,9.05,15.91,2.42,3.79,5.34,6.99,8.74,9.58,3.41,2.59,7.37,3.9,11.88,3.89,2.71,0,5.58-.47,8.62-1.4,4.19-1.34,7.65-4.44,10.41-9.24,2.75-4.8,4.13-10.21,4.13-16.21,0-3.7-.62-7.37-1.85-11.02-1.72-5.12-3.68-8.74-5.85-10.91-2.18-2.17-4.78-3.24-7.82-3.21-1.89.02-3.61.29-5.17.79-1.48.41-3.53,1.12-6.16,2.13-4.11,1.53-7.62,2.74-10.53,3.63-2.91.89-5.77,1.38-8.56,1.46-6.98.2-11.66-2.87-14.04-9.11-1.31-3.35-1.97-6.88-1.97-10.61,0-5.96,1.64-11.78,4.93-17.48,3.28-5.7,7.51-10.6,12.69-14.71,5.17-4.11,10.43-6.91,15.76-8.42,5.01-1.5,10.55-2.31,16.63-2.39,6.73-.09,13.05.73,18.97,2.45,5.91,1.72,10.3,3.83,13.18,6.25-2.09,9.21-4.19,18.65-6.28,28.31-.9-1.66-1.81-3.32-2.71-4.96-3.7-6.69-6.88-11.9-9.54-15.75-2.67-3.85-5.79-6.99-9.36-9.43-3.57-2.45-7.7-3.62-12.38-3.51-2.55.06-5.3.53-8.25,1.43-4.19,1.3-7.57,4.09-10.16,8.39-2.59,4.31-3.88,9.21-3.88,14.74,0,3.5.53,6.92,1.6,10.25,1.64,5.28,3.86,9.22,6.65,11.77,2.79,2.55,5.91,3.81,9.36,3.75.9-.02,2.17-.23,3.82-.64,1.89-.51,4.93-1.81,9.11-3.85,3.86-1.85,7.06-3.22,9.61-4.13,2.54-.91,5.01-1.35,7.39-1.34,5.99.05,10.34,3.66,13.05,10.93,1.23,3.2,1.85,6.7,1.85,10.51,0,6.16-1.71,12.19-5.11,18.12-3.41,5.94-7.76,11.11-13.05,15.45-5.3,4.35-10.61,7.38-15.95,9.04-5.01,1.55-10.51,2.33-16.5,2.33Z"/>
  </g>
</svg>